<svg width="377.1487548828125px" height="122.021240234375px" xmlns="http://www.w3.org/2000/svg" viewBox="61.425622558593744 13.9893798828125 377.1487548828125 122.021240234375" style="background: rgba(0, 0, 0, 0);" preserveAspectRatio="xMidYMid"><defs><linearGradient id="editing-shiny-gradient" x1="0.04322727117869957" x2="0.9567727288213004" y1="0.2966316784620999" y2="0.7033683215379001" gradientUnits="objectBoundingBox"><stop offset="0.0" stop-color="#ffb200"></stop><stop offset="0.5" stop-color="#e10057"></stop><stop offset="1.0" stop-color="#5A1A80"></stop></linearGradient><linearGradient id="editing-shiny-gradient2" x1="0" x2="0" y1="0" y2="1"><stop offset="0.2" stop-color="#fff" stop-opacity="0.8"></stop><stop offset="0.8" stop-color="#fff" stop-opacity="0"></stop></linearGradient><filter id="editing-shiny2" x="-100%" y="-100%" width="300%" height="300%"><feMorphology operator="erode" radius="2"></feMorphology></filter><filter id="editing-shiny" x="-100%" y="-100%" width="300%" height="300%"><feFlood flood-color="#fff" result="flood"></feFlood><feConvolveMatrix in="SourceGraphic" result="conv" order="8,8" divisor="1" kernelMatrix="0 0 0 0 0 0 0 0 0 0 0 1 1 0 0 0 0 0 0 1 1 0 0 0 0 0 1 0 0 1 0 0 0 0 1 0 0 1 0 0 0 1 0 0 0 0 1 0 0 1 1 0 0 1 1 0 0 0 0 1 1 0 0 0 "></feConvolveMatrix><feOffset dx="0" dy="4" in="conv" result="offset"></feOffset><feComposite operator="in" in="flood" in2="offset" result="comp"></feComposite><feGaussianBlur in="offset" stdDeviation="3" result="shadow"></feGaussianBlur><feColorMatrix in="shadow" type="matrix" values="0.7 0 0 0 0  0 0.7 0 0 0  0 0 0.7 0 0  0 0 0 0.3 0" result="dark-shadow"></feColorMatrix><feOffset dx="0" dy="4" in="dark-shadow" result="offset-shadow"></feOffset><feOffset dx="0" dy="2" in="conv" result="offset-2"></feOffset><feComposite operator="out" in="offset" in2="offset-2" result="edge-diff"></feComposite><feGaussianBlur in="edge-diff" stdDeviation="1" result="edge-blur"></feGaussianBlur><feColorMatrix in="edge-blur" result="edge-shadow" type="matrix" values="0 0 0 0 0  0 0 0 0 0  0 0 0 0 0  0 0 0 0.5 0"></feColorMatrix><feComposite operator="in" in="edge-shadow" in2="offset" result="edge-shadow-in"></feComposite><feOffset dx="0" dy="1" in="edge-shadow-in" result="edge-shadow-final"></feOffset><feMerge result="out"><feMergeNode in="offset-shadow"></feMergeNode><feMergeNode in="comp"></feMergeNode><feMergeNode in="edge-shadow-final"></feMergeNode><feMergeNode in="SourceGraphic"></feMergeNode></feMerge></filter></defs><g filter="url(#editing-shiny)"><g transform="translate(121.00407218933105, 102.51218795776367)"><path d="M29.18 1.28L29.18 1.28L29.18 1.28Q20.99 1.28 20.22-10.37L20.22-10.37L9.22-10.37L9.22-10.37Q7.94-7.42 7.04-4.86L7.04-4.86L5.38 0L-3.58 0L16.58-42.24L30.34-42.24L33.02-11.14L33.02-11.14Q33.66-4.42 36.22-2.43L36.22-2.43L36.22-2.43Q34.37 1.28 29.18 1.28ZM14.72-23.17L11.20-15.04L20.03-15.04L19.26-31.49L19.26-33.22L14.72-23.17ZM59.97-17.98L59.97-17.98L59.97-17.98Q62.27-22.08 62.27-26.24L62.27-26.24L62.27-26.24Q62.27-28.99 60.29-28.99L60.29-28.99L60.29-28.99Q58.75-28.99 57.15-26.37L57.15-26.37L57.15-26.37Q55.49-23.74 54.98-20.35L54.98-20.35L51.65 0L38.40 1.28L44.93-32.64L55.49-33.92L54.34-27.46L54.34-27.46Q57.47-33.92 64.51-33.92L64.51-33.92L64.51-33.92Q68.22-33.92 70.24-32L70.24-32L70.24-32Q72.26-30.08 72.26-26.14L72.26-26.14L72.26-26.14Q72.26-22.21 69.66-19.71L69.66-19.71L69.66-19.71Q67.07-17.22 62.66-17.22L62.66-17.22L62.66-17.22Q60.74-17.22 59.97-17.98ZM93.31-17.98L93.31-17.98L93.31-17.98Q95.62-22.08 95.62-26.24L95.62-26.24L95.62-26.24Q95.62-28.99 93.63-28.99L93.63-28.99L93.63-28.99Q92.10-28.99 90.50-26.37L90.50-26.37L90.50-26.37Q88.83-23.74 88.32-20.35L88.32-20.35L84.99 0L71.74 1.28L78.27-32.64L88.83-33.92L87.68-27.46L87.68-27.46Q90.82-33.92 97.86-33.92L97.86-33.92L97.86-33.92Q101.57-33.92 103.58-32L103.58-32L103.58-32Q105.60-30.08 105.60-26.14L105.60-26.14L105.60-26.14Q105.60-22.21 103.01-19.71L103.01-19.71L103.01-19.71Q100.42-17.22 96-17.22L96-17.22L96-17.22Q94.08-17.22 93.31-17.98ZM109.41-1.92L109.41-1.92L109.41-1.92Q107.90-3.58 107.23-6.21L107.23-6.21L107.23-6.21Q106.56-8.83 106.56-13.12L106.56-13.12L106.56-13.12Q106.56-17.41 108.03-21.31L108.03-21.31L108.03-21.31Q109.50-25.22 112.19-28.03L112.19-28.03L112.19-28.03Q117.70-33.92 126.78-33.92L126.78-33.92L126.78-33.92Q130.05-33.92 132.42-32.83L132.42-32.83L143.36-33.92L138.62-8.96L138.62-8.96Q138.43-8.19 138.43-6.78L138.43-6.78L138.43-6.78Q138.43-5.38 139.30-4.48L139.30-4.48L139.30-4.48Q140.16-3.58 141.44-3.46L141.44-3.46L141.44-3.46Q140.80-1.28 138.46 0L138.46 0L138.46 0Q136.13 1.28 133.50 1.28L133.50 1.28L133.50 1.28Q130.88 1.28 129.12 0.29L129.12 0.29L129.12 0.29Q127.36-0.70 126.85-2.37L126.85-2.37L126.85-2.37Q125.82-0.77 123.65 0.26L123.65 0.26L123.65 0.26Q121.47 1.28 118.56 1.28L118.56 1.28L118.56 1.28Q115.65 1.28 113.28 0.51L113.28 0.51L113.28 0.51Q110.91-0.26 109.41-1.92ZM122.91-27.90L122.91-27.90L122.91-27.90Q122.18-26.75 121.54-24.80L121.54-24.80L121.54-24.80Q120.90-22.85 119.84-17.63L119.84-17.63L119.84-17.63Q118.78-12.42 118.78-8.70L118.78-8.70L118.78-8.70Q118.78-4.99 119.36-3.90L119.36-3.90L119.36-3.90Q119.94-2.82 120.96-2.82L120.96-2.82L120.96-2.82Q123.01-2.82 124.51-4.77L124.51-4.77L124.51-4.77Q126.02-6.72 126.59-10.18L126.59-10.18L129.98-28.93L129.98-28.93Q128.64-30.08 127.07-30.08L127.07-30.08L127.07-30.08Q125.50-30.08 124.58-29.57L124.58-29.57L124.58-29.57Q123.65-29.06 122.91-27.90ZM173.89 1.28L173.89 1.28L173.89 1.28Q166.14 1.28 166.14-4.74L166.14-4.74L166.14-4.74Q166.21-6.40 166.72-9.22L166.72-9.22L167.87-15.10L167.87-15.10Q169.60-23.42 169.60-25.28L169.60-25.28L169.60-25.28Q169.60-28.99 167.42-28.99L167.42-28.99L167.42-28.99Q163.78-28.99 161.86-19.46L161.86-19.46L158.08 0L145.22 1.28L151.87-32.70L162.37-33.92L161.34-27.65L161.34-27.65Q164.35-33.92 173.57-33.92L173.57-33.92L173.57-33.92Q178.05-33.92 179.94-32.03L179.94-32.03L179.94-32.03Q181.82-30.14 181.82-25.92L181.82-25.92L181.82-25.92Q181.82-21.95 179.78-12.67L179.78-12.67L179.78-12.67Q178.82-8.51 178.82-6.94L178.82-6.94L178.82-6.94Q178.82-5.38 179.68-4.48L179.68-4.48L179.68-4.48Q180.54-3.58 181.82-3.46L181.82-3.46L181.82-3.46Q181.18-1.28 178.98 0L178.98 0L178.98 0Q176.77 1.28 173.89 1.28ZM191.49-26.75L191.49-26.75L191.49-26.75Q193.66-29.82 196.96-31.87L196.96-31.87L196.96-31.87Q200.26-33.92 204.29-33.92L204.29-33.92L204.29-33.92Q208.32-33.92 210.24-32.64L210.24-32.64L222.78-33.92L218.43-9.34L218.43-9.34Q216.19 3.20 211.46 8.13L211.46 8.13L211.46 8.13Q206.91 12.80 198.08 12.80L198.08 12.80L198.08 12.80Q191.36 12.80 187.52 10.69L187.52 10.69L187.52 10.69Q183.68 8.58 183.68 5.06L183.68 5.06L183.68 5.06Q183.68 2.43 185.66 0.93L185.66 0.93L185.66 0.93Q187.65-0.58 190.72-0.58L190.72-0.58L190.72-0.58Q193.41-0.58 195.46 0.64L195.46 0.64L195.46 0.64Q196.67 1.28 197.25 2.18L197.25 2.18L197.25 2.18Q195.78 3.46 195.78 5.57L195.78 5.57L195.78 5.57Q195.78 8.32 198.34 8.32L198.34 8.32L198.34 8.32Q202.62 8.32 205.06-1.79L205.06-1.79L205.06-1.79Q205.76-4.54 206.34-7.30L206.34-7.30L206.34-7.30Q203.46-3.78 196.93-3.78L196.93-3.78L196.93-3.78Q192.38-3.78 189.76-5.95L189.76-5.95L189.76-5.95Q187.14-8.13 187.14-13.25L187.14-13.25L187.14-13.25Q187.14-16.45 188.22-20.06L188.22-20.06L188.22-20.06Q189.31-23.68 191.49-26.75ZM199.81-13.06L199.81-13.06L199.81-13.06Q199.81-8.70 202.05-8.70L202.05-8.70L202.05-8.70Q203.58-8.70 205.06-10.37L205.06-10.37L205.06-10.37Q206.21-11.71 206.66-13.70L206.66-13.70L209.92-30.14L209.92-30.14Q209.60-30.21 209.28-30.34L209.28-30.34L209.28-30.34Q208.64-30.59 207.81-30.59L207.81-30.59L207.81-30.59Q203.90-30.59 201.60-24.19L201.60-24.19L201.60-24.19Q199.81-19.20 199.81-13.06ZM251.20-10.82L251.20-10.82L251.20-10.82Q252.80-9.73 252.80-7.33L252.80-7.33L252.80-7.33Q252.80-4.93 251.58-3.39L251.58-3.39L251.58-3.39Q250.37-1.86 248.38-0.83L248.38-0.83L248.38-0.83Q244.29 1.28 239.87 1.28L239.87 1.28L239.87 1.28Q235.46 1.28 232.86 0.32L232.86 0.32L232.86 0.32Q230.27-0.64 228.54-2.43L228.54-2.43L228.54-2.43Q225.15-5.82 225.15-12.03L225.15-12.03L225.15-12.03Q225.15-21.70 230.40-27.58L230.40-27.58L230.40-27.58Q236.03-33.92 245.82-33.92L245.82-33.92L245.82-33.92Q251.90-33.92 254.91-31.36L254.91-31.36L254.91-31.36Q257.15-29.44 257.15-26.30L257.15-26.30L257.15-26.30Q257.15-15.04 237.70-15.04L237.70-15.04L237.70-15.04Q237.44-13.38 237.44-11.97L237.44-11.97L237.44-11.97Q237.44-9.02 238.75-7.90L238.75-7.90L238.75-7.90Q240.06-6.78 242.50-6.78L242.50-6.78L242.50-6.78Q244.93-6.78 247.52-7.90L247.52-7.90L247.52-7.90Q250.11-9.02 251.20-10.82ZM238.14-17.79L238.14-17.79L238.14-17.79Q242.69-17.79 245.31-20.61L245.31-20.61L245.31-20.61Q247.94-23.30 247.94-27.58L247.94-27.58L247.94-27.58Q247.94-29.06 247.39-29.86L247.39-29.86L247.39-29.86Q246.85-30.66 245.76-30.66L245.76-30.66L245.76-30.66Q244.67-30.66 243.74-30.24L243.74-30.24L243.74-30.24Q242.82-29.82 241.86-28.42L241.86-28.42L241.86-28.42Q239.49-25.22 238.14-17.79Z" fill="url(#editing-shiny-gradient)"></path></g></g><g filter="url(#editing-shiny2)"><g transform="translate(121.21500968933105, 102.52000045776367)"><path d="M29.18 1.28L29.18 1.28L29.18 1.28Q20.99 1.28 20.22-10.37L20.22-10.37L9.22-10.37L9.22-10.37Q7.94-7.42 7.04-4.86L7.04-4.86L5.38 0L-3.58 0L16.58-42.24L30.34-42.24L33.02-11.14L33.02-11.14Q33.66-4.42 36.22-2.43L36.22-2.43L36.22-2.43Q34.37 1.28 29.18 1.28ZM14.72-23.17L11.20-15.04L20.03-15.04L19.26-31.49L19.26-33.22L14.72-23.17ZM59.97-17.98L59.97-17.98L59.97-17.98Q62.27-22.08 62.27-26.24L62.27-26.24L62.27-26.24Q62.27-28.99 60.29-28.99L60.29-28.99L60.29-28.99Q58.75-28.99 57.15-26.37L57.15-26.37L57.15-26.37Q55.49-23.74 54.98-20.35L54.98-20.35L51.65 0L38.40 1.28L44.93-32.64L55.49-33.92L54.34-27.46L54.34-27.46Q57.47-33.92 64.51-33.92L64.51-33.92L64.51-33.92Q68.22-33.92 70.24-32L70.24-32L70.24-32Q72.26-30.08 72.26-26.14L72.26-26.14L72.26-26.14Q72.26-22.21 69.66-19.71L69.66-19.71L69.66-19.71Q67.07-17.22 62.66-17.22L62.66-17.22L62.66-17.22Q60.74-17.22 59.97-17.98ZM93.31-17.98L93.31-17.98L93.31-17.98Q95.62-22.08 95.62-26.24L95.62-26.24L95.62-26.24Q95.62-28.99 93.63-28.99L93.63-28.99L93.63-28.99Q92.10-28.99 90.50-26.37L90.50-26.37L90.50-26.37Q88.83-23.74 88.32-20.35L88.32-20.35L84.99 0L71.74 1.28L78.27-32.64L88.83-33.92L87.68-27.46L87.68-27.46Q90.82-33.92 97.86-33.92L97.86-33.92L97.86-33.92Q101.57-33.92 103.58-32L103.58-32L103.58-32Q105.60-30.08 105.60-26.14L105.60-26.14L105.60-26.14Q105.60-22.21 103.01-19.71L103.01-19.71L103.01-19.71Q100.42-17.22 96-17.22L96-17.22L96-17.22Q94.08-17.22 93.31-17.98ZM109.41-1.92L109.41-1.92L109.41-1.92Q107.90-3.58 107.23-6.21L107.23-6.21L107.23-6.21Q106.56-8.83 106.56-13.12L106.56-13.12L106.56-13.12Q106.56-17.41 108.03-21.31L108.03-21.31L108.03-21.31Q109.50-25.22 112.19-28.03L112.19-28.03L112.19-28.03Q117.70-33.92 126.78-33.92L126.78-33.92L126.78-33.92Q130.05-33.92 132.42-32.83L132.42-32.83L143.36-33.92L138.62-8.96L138.62-8.96Q138.43-8.19 138.43-6.78L138.43-6.78L138.43-6.78Q138.43-5.38 139.30-4.48L139.30-4.48L139.30-4.48Q140.16-3.58 141.44-3.46L141.44-3.46L141.44-3.46Q140.80-1.28 138.46 0L138.46 0L138.46 0Q136.13 1.28 133.50 1.28L133.50 1.28L133.50 1.28Q130.88 1.28 129.12 0.29L129.12 0.29L129.12 0.29Q127.36-0.70 126.85-2.37L126.85-2.37L126.85-2.37Q125.82-0.77 123.65 0.26L123.65 0.26L123.65 0.26Q121.47 1.28 118.56 1.28L118.56 1.28L118.56 1.28Q115.65 1.28 113.28 0.51L113.28 0.51L113.28 0.51Q110.91-0.26 109.41-1.92ZM122.91-27.90L122.91-27.90L122.91-27.90Q122.18-26.75 121.54-24.80L121.54-24.80L121.54-24.80Q120.90-22.85 119.84-17.63L119.84-17.63L119.84-17.63Q118.78-12.42 118.78-8.70L118.78-8.70L118.78-8.70Q118.78-4.99 119.36-3.90L119.36-3.90L119.36-3.90Q119.94-2.82 120.96-2.82L120.96-2.82L120.96-2.82Q123.01-2.82 124.51-4.77L124.51-4.77L124.51-4.77Q126.02-6.72 126.59-10.18L126.59-10.18L129.98-28.93L129.98-28.93Q128.64-30.08 127.07-30.08L127.07-30.08L127.07-30.08Q125.50-30.08 124.58-29.57L124.58-29.57L124.58-29.57Q123.65-29.06 122.91-27.90ZM173.89 1.28L173.89 1.28L173.89 1.28Q166.14 1.28 166.14-4.74L166.14-4.74L166.14-4.74Q166.21-6.40 166.72-9.22L166.72-9.22L167.87-15.10L167.87-15.10Q169.60-23.42 169.60-25.28L169.60-25.28L169.60-25.28Q169.60-28.99 167.42-28.99L167.42-28.99L167.42-28.99Q163.78-28.99 161.86-19.46L161.86-19.46L158.08 0L145.22 1.28L151.87-32.70L162.37-33.92L161.34-27.65L161.34-27.65Q164.35-33.92 173.57-33.92L173.57-33.92L173.57-33.92Q178.05-33.92 179.94-32.03L179.94-32.03L179.94-32.03Q181.82-30.14 181.82-25.92L181.82-25.92L181.82-25.92Q181.82-21.95 179.78-12.67L179.78-12.67L179.78-12.67Q178.82-8.51 178.82-6.94L178.82-6.94L178.82-6.94Q178.82-5.38 179.68-4.48L179.68-4.48L179.68-4.48Q180.54-3.58 181.82-3.46L181.82-3.46L181.82-3.46Q181.18-1.28 178.98 0L178.98 0L178.98 0Q176.77 1.28 173.89 1.28ZM191.49-26.75L191.49-26.75L191.49-26.75Q193.66-29.82 196.96-31.87L196.96-31.87L196.96-31.87Q200.26-33.92 204.29-33.92L204.29-33.92L204.29-33.92Q208.32-33.92 210.24-32.64L210.24-32.64L222.78-33.92L218.43-9.34L218.43-9.34Q216.19 3.20 211.46 8.13L211.46 8.13L211.46 8.13Q206.91 12.80 198.08 12.80L198.08 12.80L198.08 12.80Q191.36 12.80 187.52 10.69L187.52 10.69L187.52 10.69Q183.68 8.58 183.68 5.06L183.68 5.06L183.68 5.06Q183.68 2.43 185.66 0.93L185.66 0.93L185.66 0.93Q187.65-0.58 190.72-0.58L190.72-0.58L190.72-0.58Q193.41-0.58 195.46 0.64L195.46 0.64L195.46 0.64Q196.67 1.28 197.25 2.18L197.25 2.18L197.25 2.18Q195.78 3.46 195.78 5.57L195.78 5.57L195.78 5.57Q195.78 8.32 198.34 8.32L198.34 8.32L198.34 8.32Q202.62 8.32 205.06-1.79L205.06-1.79L205.06-1.79Q205.76-4.54 206.34-7.30L206.34-7.30L206.34-7.30Q203.46-3.78 196.93-3.78L196.93-3.78L196.93-3.78Q192.38-3.78 189.76-5.95L189.76-5.95L189.76-5.95Q187.14-8.13 187.14-13.25L187.14-13.25L187.14-13.25Q187.14-16.45 188.22-20.06L188.22-20.06L188.22-20.06Q189.31-23.68 191.49-26.75ZM199.81-13.06L199.81-13.06L199.81-13.06Q199.81-8.70 202.05-8.70L202.05-8.70L202.05-8.70Q203.58-8.70 205.06-10.37L205.06-10.37L205.06-10.37Q206.21-11.71 206.66-13.70L206.66-13.70L209.92-30.14L209.92-30.14Q209.60-30.21 209.28-30.34L209.28-30.34L209.28-30.34Q208.64-30.59 207.81-30.59L207.81-30.59L207.81-30.59Q203.90-30.59 201.60-24.19L201.60-24.19L201.60-24.19Q199.81-19.20 199.81-13.06ZM251.20-10.82L251.20-10.82L251.20-10.82Q252.80-9.73 252.80-7.33L252.80-7.33L252.80-7.33Q252.80-4.93 251.58-3.39L251.58-3.39L251.58-3.39Q250.37-1.86 248.38-0.83L248.38-0.83L248.38-0.83Q244.29 1.28 239.87 1.28L239.87 1.28L239.87 1.28Q235.46 1.28 232.86 0.32L232.86 0.32L232.86 0.32Q230.27-0.64 228.54-2.43L228.54-2.43L228.54-2.43Q225.15-5.82 225.15-12.03L225.15-12.03L225.15-12.03Q225.15-21.70 230.40-27.58L230.40-27.58L230.40-27.58Q236.03-33.92 245.82-33.92L245.82-33.92L245.82-33.92Q251.90-33.92 254.91-31.36L254.91-31.36L254.91-31.36Q257.15-29.44 257.15-26.30L257.15-26.30L257.15-26.30Q257.15-15.04 237.70-15.04L237.70-15.04L237.70-15.04Q237.44-13.38 237.44-11.97L237.44-11.97L237.44-11.97Q237.44-9.02 238.75-7.90L238.75-7.90L238.75-7.90Q240.06-6.78 242.50-6.78L242.50-6.78L242.50-6.78Q244.93-6.78 247.52-7.90L247.52-7.90L247.52-7.90Q250.11-9.02 251.20-10.82ZM238.14-17.79L238.14-17.79L238.14-17.79Q242.69-17.79 245.31-20.61L245.31-20.61L245.31-20.61Q247.94-23.30 247.94-27.58L247.94-27.58L247.94-27.58Q247.94-29.06 247.39-29.86L247.39-29.86L247.39-29.86Q246.85-30.66 245.76-30.66L245.76-30.66L245.76-30.66Q244.67-30.66 243.74-30.24L243.74-30.24L243.74-30.24Q242.82-29.82 241.86-28.42L241.86-28.42L241.86-28.42Q239.49-25.22 238.14-17.79Z" fill="url(#editing-shiny-gradient2)"></path></g></g><style>text {
  font-size: 64px;
  font-family: Arial Black;
  dominant-baseline: central;
  text-anchor: middle;
}</style></svg>