<svg width="200px" height="122.021240234375px" xmlns="http://www.w3.org/2000/svg" viewBox="46.901220703125006 13.9893798828125 406.19755859375 122.021240234375" style="background: rgba(0, 0, 0, 0);" preserveAspectRatio="xMidYMid"><defs><linearGradient id="editing-shiny-gradient" x1="0.04322727117869957" x2="0.9567727288213004" y1="0.2966316784620999" y2="0.7033683215379001" gradientUnits="objectBoundingBox"><stop offset="0.0" stop-color="#ffb200"></stop><stop offset="0.5" stop-color="#e10057"></stop><stop offset="1.0" stop-color="#5A1A80"></stop></linearGradient><linearGradient id="editing-shiny-gradient2" x1="0" x2="0" y1="0" y2="1"><stop offset="0.2" stop-color="#fff" stop-opacity="0.8"></stop><stop offset="0.8" stop-color="#fff" stop-opacity="0"></stop></linearGradient><filter id="editing-shiny2" x="-100%" y="-100%" width="300%" height="300%"><feMorphology operator="erode" radius="2"></feMorphology></filter><filter id="editing-shiny" x="-100%" y="-100%" width="300%" height="300%"><feFlood flood-color="#fff" result="flood"></feFlood><feConvolveMatrix in="SourceGraphic" result="conv" order="8,8" divisor="1" kernelMatrix="0 0 0 0 0 0 0 0 0 0 0 1 1 0 0 0 0 0 0 1 1 0 0 0 0 0 1 0 0 1 0 0 0 0 1 0 0 1 0 0 0 1 0 0 0 0 1 0 0 1 1 0 0 1 1 0 0 0 0 1 1 0 0 0 "></feConvolveMatrix><feOffset dx="0" dy="4" in="conv" result="offset"></feOffset><feComposite operator="in" in="flood" in2="offset" result="comp"></feComposite><feGaussianBlur in="offset" stdDeviation="3" result="shadow"></feGaussianBlur><feColorMatrix in="shadow" type="matrix" values="0.7 0 0 0 0  0 0.7 0 0 0  0 0 0.7 0 0  0 0 0 0.3 0" result="dark-shadow"></feColorMatrix><feOffset dx="0" dy="4" in="dark-shadow" result="offset-shadow"></feOffset><feOffset dx="0" dy="2" in="conv" result="offset-2"></feOffset><feComposite operator="out" in="offset" in2="offset-2" result="edge-diff"></feComposite><feGaussianBlur in="edge-diff" stdDeviation="1" result="edge-blur"></feGaussianBlur><feColorMatrix in="edge-blur" result="edge-shadow" type="matrix" values="0 0 0 0 0  0 0 0 0 0  0 0 0 0 0  0 0 0 0.5 0"></feColorMatrix><feComposite operator="in" in="edge-shadow" in2="offset" result="edge-shadow-in"></feComposite><feOffset dx="0" dy="1" in="edge-shadow-in" result="edge-shadow-final"></feOffset><feMerge result="out"><feMergeNode in="offset-shadow"></feMergeNode><feMergeNode in="comp"></feMergeNode><feMergeNode in="edge-shadow-final"></feMergeNode><feMergeNode in="SourceGraphic"></feMergeNode></feMerge></filter></defs><g filter="url(#editing-shiny)"><g transform="translate(107.59999144077301, 103.15218734741211)"><path d="M34.50-13.25L34.50-13.25L34.50-13.25Q36.16-12.03 36.16-9.44L36.16-9.44L36.16-9.44Q36.16-6.85 35.04-5.02L35.04-5.02L35.04-5.02Q33.92-3.20 31.74-1.79L31.74-1.79L31.74-1.79Q27.07 1.22 18.91 1.22L18.91 1.22L18.91 1.22Q10.75 1.22 6.30-3.04L6.30-3.04L6.30-3.04Q1.86-7.30 1.86-14.85L1.86-14.85L1.86-14.85Q1.86-25.54 7.42-33.66L7.42-33.66L7.42-33.66Q11.65-39.68 19.20-42.24L19.20-42.24L19.20-42.24Q23.10-43.52 26.94-43.52L26.94-43.52L26.94-43.52Q30.78-43.52 33.15-43.01L33.15-43.01L33.15-43.01Q35.52-42.50 37.31-41.47L37.31-41.47L37.31-41.47Q41.22-39.23 41.22-35.65L41.22-35.65L41.22-35.65Q41.22-32.38 38.14-29.95L38.14-29.95L38.14-29.95Q35.33-27.78 33.02-27.78L33.02-27.78L33.02-27.78Q30.72-27.78 29.76-28.10L29.76-28.10L29.76-28.10Q30.02-30.40 30.02-31.90L30.02-31.90L30.02-31.90Q30.02-33.41 29.95-34.50L29.95-34.50L29.95-34.50Q29.89-35.58 29.57-36.61L29.57-36.61L29.57-36.61Q28.93-38.98 26.98-38.98L26.98-38.98L26.98-38.98Q25.02-38.98 23.07-37.15L23.07-37.15L23.07-37.15Q21.12-35.33 19.46-32.26L19.46-32.26L19.46-32.26Q15.68-25.28 15.68-17.02L15.68-17.02L15.68-17.02Q15.68-13.06 17.92-10.78L17.92-10.78L17.92-10.78Q20.16-8.51 24.96-8.51L24.96-8.51L24.96-8.51Q28.54-8.51 31.94-10.88L31.94-10.88L31.94-10.88Q33.41-11.90 34.50-13.25ZM55.42 1.28L55.42 1.28L55.42 1.28Q41.34 1.28 41.34-11.97L41.34-11.97L41.34-11.97Q41.34-21.38 46.53-27.46L46.53-27.46L46.53-27.46Q52.03-33.92 61.57-33.92L61.57-33.92L61.57-33.92Q68.48-33.92 72-30.72L72-30.72L72-30.72Q75.52-27.52 75.52-20.80L75.52-20.80L75.52-20.80Q75.52-10.56 70.02-4.61L70.02-4.61L70.02-4.61Q64.64 1.28 55.42 1.28ZM57.09-26.56L57.09-26.56L57.09-26.56Q56.32-24.83 55.71-22.24L55.71-22.24L55.71-22.24Q55.10-19.65 54.34-15.55L54.34-15.55L54.34-15.55Q53.57-11.46 53.57-6.40L53.57-6.40L53.57-6.40Q53.57-4.74 54.11-3.65L54.11-3.65L54.11-3.65Q54.66-2.56 56.13-2.56L56.13-2.56L56.13-2.56Q57.60-2.56 58.53-3.26L58.53-3.26L58.53-3.26Q59.46-3.97 60.16-5.63L60.16-5.63L60.16-5.63Q61.44-8.58 62.46-14.05L62.46-14.05L62.46-14.05Q63.49-19.52 63.58-21.89L63.58-21.89L63.58-21.89Q63.68-24.26 63.68-26.02L63.68-26.02L63.68-26.02Q63.68-27.78 63.17-28.93L63.17-28.93L63.17-28.93Q62.66-30.08 61.22-30.08L61.22-30.08L61.22-30.08Q59.78-30.08 58.82-29.18L58.82-29.18L58.82-29.18Q57.86-28.29 57.09-26.56ZM125.38 1.28L125.38 1.28L125.38 1.28Q117.63 1.28 117.63-4.74L117.63-4.74L117.63-4.74Q117.63-7.36 118.75-12.45L118.75-12.45L118.75-12.45Q119.87-17.54 120.26-19.58L120.26-19.58L120.26-19.58Q121.15-24.26 121.15-25.73L121.15-25.73L121.15-25.73Q121.15-28.99 118.72-28.99L118.72-28.99L118.72-28.99Q117.12-28.99 115.58-26.78L115.58-26.78L115.58-26.78Q114.05-24.58 113.34-20.16L113.34-20.16L109.38 0L96.90 1.28L100.35-16.13L100.35-16.13Q100.93-19.01 101.44-22.27L101.44-22.27L101.44-22.27Q101.95-25.54 101.95-26.05L101.95-26.05L101.95-26.05Q101.95-28.99 99.78-28.99L99.78-28.99L99.78-28.99Q98.30-28.99 96.70-26.82L96.70-26.82L96.70-26.82Q95.10-24.64 94.21-20.16L94.21-20.16L90.30 0L77.70 1.28L84.42-32.64L94.85-33.92L93.76-27.46L93.76-27.46Q95.42-30.91 98.50-32.42L98.50-32.42L98.50-32.42Q101.57-33.92 106.37-33.92L106.37-33.92L106.37-33.92Q109.12-33.92 110.91-32.58L110.91-32.58L110.91-32.58Q112.70-31.23 113.28-29.06L113.28-29.06L113.28-29.06Q114.37-31.30 117.15-32.61L117.15-32.61L117.15-32.61Q119.94-33.92 123.36-33.92L123.36-33.92L123.36-33.92Q126.78-33.92 128.48-33.18L128.48-33.18L128.48-33.18Q130.18-32.45 131.20-31.23L131.20-31.23L131.20-31.23Q132.93-28.99 132.93-24.90L132.93-24.90L132.93-24.90Q132.93-20.86 131.20-12.48L131.20-12.48L131.20-12.48Q130.30-8.38 130.30-6.88L130.30-6.88L130.30-6.88Q130.30-5.38 131.17-4.48L131.17-4.48L131.17-4.48Q132.03-3.58 133.31-3.46L133.31-3.46L133.31-3.46Q132.67-1.28 130.46 0L130.46 0L130.46 0Q128.26 1.28 125.38 1.28ZM168.06-4.38L168.06-4.38L168.06-4.38Q165.38-1.66 161.70-0.19L161.70-0.19L161.70-0.19Q158.02 1.28 154.37 1.28L154.37 1.28L154.37 1.28Q150.72 1.28 149.44 0.64L149.44 0.64L147.46 11.52L134.46 12.80L143.30-32.64L153.73-33.73L152.90-29.31L152.90-29.31Q155.58-33.86 161.15-33.86L161.15-33.86L161.15-33.86Q167.42-33.86 170.75-29.82L170.75-29.82L170.75-29.82Q173.70-26.18 173.70-20.61L173.70-20.61L173.70-20.61Q173.70-15.04 172.22-11.07L172.22-11.07L172.22-11.07Q170.75-7.10 168.06-4.38ZM153.60-22.34L150.21-3.58L150.21-3.58Q151.55-2.43 153.22-2.43L153.22-2.43L153.22-2.43Q154.88-2.43 155.84-3.07L155.84-3.07L155.84-3.07Q156.80-3.71 157.50-4.99L157.50-4.99L157.50-4.99Q159.42-8.45 160.96-18.94L160.96-18.94L160.96-18.94Q161.41-22.02 161.41-25.02L161.41-25.02L161.41-25.02Q161.41-28.03 160.74-28.99L160.74-28.99L160.74-28.99Q160.06-29.95 158.78-29.95L158.78-29.95L158.78-29.95Q154.88-29.95 153.60-22.34L153.60-22.34ZM180.32-1.92L180.32-1.92L180.32-1.92Q178.82-3.58 178.14-6.21L178.14-6.21L178.14-6.21Q177.47-8.83 177.47-13.12L177.47-13.12L177.47-13.12Q177.47-17.41 178.94-21.31L178.94-21.31L178.94-21.31Q180.42-25.22 183.10-28.03L183.10-28.03L183.10-28.03Q188.61-33.92 197.70-33.92L197.70-33.92L197.70-33.92Q200.96-33.92 203.33-32.83L203.33-32.83L214.27-33.92L209.54-8.96L209.54-8.96Q209.34-8.19 209.34-6.78L209.34-6.78L209.34-6.78Q209.34-5.38 210.21-4.48L210.21-4.48L210.21-4.48Q211.07-3.58 212.35-3.46L212.35-3.46L212.35-3.46Q211.71-1.28 209.38 0L209.38 0L209.38 0Q207.04 1.28 204.42 1.28L204.42 1.28L204.42 1.28Q201.79 1.28 200.03 0.29L200.03 0.29L200.03 0.29Q198.27-0.70 197.76-2.37L197.76-2.37L197.76-2.37Q196.74-0.77 194.56 0.26L194.56 0.26L194.56 0.26Q192.38 1.28 189.47 1.28L189.47 1.28L189.47 1.28Q186.56 1.28 184.19 0.51L184.19 0.51L184.19 0.51Q181.82-0.26 180.32-1.92ZM193.82-27.90L193.82-27.90L193.82-27.90Q193.09-26.75 192.45-24.80L192.45-24.80L192.45-24.80Q191.81-22.85 190.75-17.63L190.75-17.63L190.75-17.63Q189.70-12.42 189.70-8.70L189.70-8.70L189.70-8.70Q189.70-4.99 190.27-3.90L190.27-3.90L190.27-3.90Q190.85-2.82 191.87-2.82L191.87-2.82L191.87-2.82Q193.92-2.82 195.42-4.77L195.42-4.77L195.42-4.77Q196.93-6.72 197.50-10.18L197.50-10.18L200.90-28.93L200.90-28.93Q199.55-30.08 197.98-30.08L197.98-30.08L197.98-30.08Q196.42-30.08 195.49-29.57L195.49-29.57L195.49-29.57Q194.56-29.06 193.82-27.90ZM237.76-17.98L237.76-17.98L237.76-17.98Q240.06-22.08 240.06-26.24L240.06-26.24L240.06-26.24Q240.06-28.99 238.08-28.99L238.08-28.99L238.08-28.99Q236.54-28.99 234.94-26.37L234.94-26.37L234.94-26.37Q233.28-23.74 232.77-20.35L232.77-20.35L229.44 0L216.19 1.28L222.72-32.64L233.28-33.92L232.13-27.46L232.13-27.46Q235.26-33.92 242.30-33.92L242.30-33.92L242.30-33.92Q246.02-33.92 248.03-32L248.03-32L248.03-32Q250.05-30.08 250.05-26.14L250.05-26.14L250.05-26.14Q250.05-22.21 247.46-19.71L247.46-19.71L247.46-19.71Q244.86-17.22 240.45-17.22L240.45-17.22L240.45-17.22Q238.53-17.22 237.76-17.98ZM276.99-10.82L276.99-10.82L276.99-10.82Q278.59-9.73 278.59-7.33L278.59-7.33L278.59-7.33Q278.59-4.93 277.38-3.39L277.38-3.39L277.38-3.39Q276.16-1.86 274.18-0.83L274.18-0.83L274.18-0.83Q270.08 1.28 265.66 1.28L265.66 1.28L265.66 1.28Q261.25 1.28 258.66 0.32L258.66 0.32L258.66 0.32Q256.06-0.64 254.34-2.43L254.34-2.43L254.34-2.43Q250.94-5.82 250.94-12.03L250.94-12.03L250.94-12.03Q250.94-21.70 256.19-27.58L256.19-27.58L256.19-27.58Q261.82-33.92 271.62-33.92L271.62-33.92L271.62-33.92Q277.70-33.92 280.70-31.36L280.70-31.36L280.70-31.36Q282.94-29.44 282.94-26.30L282.94-26.30L282.94-26.30Q282.94-15.04 263.49-15.04L263.49-15.04L263.49-15.04Q263.23-13.38 263.23-11.97L263.23-11.97L263.23-11.97Q263.23-9.02 264.54-7.90L264.54-7.90L264.54-7.90Q265.86-6.78 268.29-6.78L268.29-6.78L268.29-6.78Q270.72-6.78 273.31-7.90L273.31-7.90L273.31-7.90Q275.90-9.02 276.99-10.82ZM263.94-17.79L263.94-17.79L263.94-17.79Q268.48-17.79 271.10-20.61L271.10-20.61L271.10-20.61Q273.73-23.30 273.73-27.58L273.73-27.58L273.73-27.58Q273.73-29.06 273.18-29.86L273.18-29.86L273.18-29.86Q272.64-30.66 271.55-30.66L271.55-30.66L271.55-30.66Q270.46-30.66 269.54-30.24L269.54-30.24L269.54-30.24Q268.61-29.82 267.65-28.42L267.65-28.42L267.65-28.42Q265.28-25.22 263.94-17.79Z" fill="url(#editing-shiny-gradient)"></path></g></g><g filter="url(#editing-shiny2)"><g transform="translate(107.59999144077301, 103.15999984741211)"><path d="M34.50-13.25L34.50-13.25L34.50-13.25Q36.16-12.03 36.16-9.44L36.16-9.44L36.16-9.44Q36.16-6.85 35.04-5.02L35.04-5.02L35.04-5.02Q33.92-3.20 31.74-1.79L31.74-1.79L31.74-1.79Q27.07 1.22 18.91 1.22L18.91 1.22L18.91 1.22Q10.75 1.22 6.30-3.04L6.30-3.04L6.30-3.04Q1.86-7.30 1.86-14.85L1.86-14.85L1.86-14.85Q1.86-25.54 7.42-33.66L7.42-33.66L7.42-33.66Q11.65-39.68 19.20-42.24L19.20-42.24L19.20-42.24Q23.10-43.52 26.94-43.52L26.94-43.52L26.94-43.52Q30.78-43.52 33.15-43.01L33.15-43.01L33.15-43.01Q35.52-42.50 37.31-41.47L37.31-41.47L37.31-41.47Q41.22-39.23 41.22-35.65L41.22-35.65L41.22-35.65Q41.22-32.38 38.14-29.95L38.14-29.95L38.14-29.95Q35.33-27.78 33.02-27.78L33.02-27.78L33.02-27.78Q30.72-27.78 29.76-28.10L29.76-28.10L29.76-28.10Q30.02-30.40 30.02-31.90L30.02-31.90L30.02-31.90Q30.02-33.41 29.95-34.50L29.95-34.50L29.95-34.50Q29.89-35.58 29.57-36.61L29.57-36.61L29.57-36.61Q28.93-38.98 26.98-38.98L26.98-38.98L26.98-38.98Q25.02-38.98 23.07-37.15L23.07-37.15L23.07-37.15Q21.12-35.33 19.46-32.26L19.46-32.26L19.46-32.26Q15.68-25.28 15.68-17.02L15.68-17.02L15.68-17.02Q15.68-13.06 17.92-10.78L17.92-10.78L17.92-10.78Q20.16-8.51 24.96-8.51L24.96-8.51L24.96-8.51Q28.54-8.51 31.94-10.88L31.94-10.88L31.94-10.88Q33.41-11.90 34.50-13.25ZM55.42 1.28L55.42 1.28L55.42 1.28Q41.34 1.28 41.34-11.97L41.34-11.97L41.34-11.97Q41.34-21.38 46.53-27.46L46.53-27.46L46.53-27.46Q52.03-33.92 61.57-33.92L61.57-33.92L61.57-33.92Q68.48-33.92 72-30.72L72-30.72L72-30.72Q75.52-27.52 75.52-20.80L75.52-20.80L75.52-20.80Q75.52-10.56 70.02-4.61L70.02-4.61L70.02-4.61Q64.64 1.28 55.42 1.28ZM57.09-26.56L57.09-26.56L57.09-26.56Q56.32-24.83 55.71-22.24L55.71-22.24L55.71-22.24Q55.10-19.65 54.34-15.55L54.34-15.55L54.34-15.55Q53.57-11.46 53.57-6.40L53.57-6.40L53.57-6.40Q53.57-4.74 54.11-3.65L54.11-3.65L54.11-3.65Q54.66-2.56 56.13-2.56L56.13-2.56L56.13-2.56Q57.60-2.56 58.53-3.26L58.53-3.26L58.53-3.26Q59.46-3.97 60.16-5.63L60.16-5.63L60.16-5.63Q61.44-8.58 62.46-14.05L62.46-14.05L62.46-14.05Q63.49-19.52 63.58-21.89L63.58-21.89L63.58-21.89Q63.68-24.26 63.68-26.02L63.68-26.02L63.68-26.02Q63.68-27.78 63.17-28.93L63.17-28.93L63.17-28.93Q62.66-30.08 61.22-30.08L61.22-30.08L61.22-30.08Q59.78-30.08 58.82-29.18L58.82-29.18L58.82-29.18Q57.86-28.29 57.09-26.56ZM125.38 1.28L125.38 1.28L125.38 1.28Q117.63 1.28 117.63-4.74L117.63-4.74L117.63-4.74Q117.63-7.36 118.75-12.45L118.75-12.45L118.75-12.45Q119.87-17.54 120.26-19.58L120.26-19.58L120.26-19.58Q121.15-24.26 121.15-25.73L121.15-25.73L121.15-25.73Q121.15-28.99 118.72-28.99L118.72-28.99L118.72-28.99Q117.12-28.99 115.58-26.78L115.58-26.78L115.58-26.78Q114.05-24.58 113.34-20.16L113.34-20.16L109.38 0L96.90 1.28L100.35-16.13L100.35-16.13Q100.93-19.01 101.44-22.27L101.44-22.27L101.44-22.27Q101.95-25.54 101.95-26.05L101.95-26.05L101.95-26.05Q101.95-28.99 99.78-28.99L99.78-28.99L99.78-28.99Q98.30-28.99 96.70-26.82L96.70-26.82L96.70-26.82Q95.10-24.64 94.21-20.16L94.21-20.16L90.30 0L77.70 1.28L84.42-32.64L94.85-33.92L93.76-27.46L93.76-27.46Q95.42-30.91 98.50-32.42L98.50-32.42L98.50-32.42Q101.57-33.92 106.37-33.92L106.37-33.92L106.37-33.92Q109.12-33.92 110.91-32.58L110.91-32.58L110.91-32.58Q112.70-31.23 113.28-29.06L113.28-29.06L113.28-29.06Q114.37-31.30 117.15-32.61L117.15-32.61L117.15-32.61Q119.94-33.92 123.36-33.92L123.36-33.92L123.36-33.92Q126.78-33.92 128.48-33.18L128.48-33.18L128.48-33.18Q130.18-32.45 131.20-31.23L131.20-31.23L131.20-31.23Q132.93-28.99 132.93-24.90L132.93-24.90L132.93-24.90Q132.93-20.86 131.20-12.48L131.20-12.48L131.20-12.48Q130.30-8.38 130.30-6.88L130.30-6.88L130.30-6.88Q130.30-5.38 131.17-4.48L131.17-4.48L131.17-4.48Q132.03-3.58 133.31-3.46L133.31-3.46L133.31-3.46Q132.67-1.28 130.46 0L130.46 0L130.46 0Q128.26 1.28 125.38 1.28ZM168.06-4.38L168.06-4.38L168.06-4.38Q165.38-1.66 161.70-0.19L161.70-0.19L161.70-0.19Q158.02 1.28 154.37 1.28L154.37 1.28L154.37 1.28Q150.72 1.28 149.44 0.64L149.44 0.64L147.46 11.52L134.46 12.80L143.30-32.64L153.73-33.73L152.90-29.31L152.90-29.31Q155.58-33.86 161.15-33.86L161.15-33.86L161.15-33.86Q167.42-33.86 170.75-29.82L170.75-29.82L170.75-29.82Q173.70-26.18 173.70-20.61L173.70-20.61L173.70-20.61Q173.70-15.04 172.22-11.07L172.22-11.07L172.22-11.07Q170.75-7.10 168.06-4.38ZM153.60-22.34L150.21-3.58L150.21-3.58Q151.55-2.43 153.22-2.43L153.22-2.43L153.22-2.43Q154.88-2.43 155.84-3.07L155.84-3.07L155.84-3.07Q156.80-3.71 157.50-4.99L157.50-4.99L157.50-4.99Q159.42-8.45 160.96-18.94L160.96-18.94L160.96-18.94Q161.41-22.02 161.41-25.02L161.41-25.02L161.41-25.02Q161.41-28.03 160.74-28.99L160.74-28.99L160.74-28.99Q160.06-29.95 158.78-29.95L158.78-29.95L158.78-29.95Q154.88-29.95 153.60-22.34L153.60-22.34ZM180.32-1.92L180.32-1.92L180.32-1.92Q178.82-3.58 178.14-6.21L178.14-6.21L178.14-6.21Q177.47-8.83 177.47-13.12L177.47-13.12L177.47-13.12Q177.47-17.41 178.94-21.31L178.94-21.31L178.94-21.31Q180.42-25.22 183.10-28.03L183.10-28.03L183.10-28.03Q188.61-33.92 197.70-33.92L197.70-33.92L197.70-33.92Q200.96-33.92 203.33-32.83L203.33-32.83L214.27-33.92L209.54-8.96L209.54-8.96Q209.34-8.19 209.34-6.78L209.34-6.78L209.34-6.78Q209.34-5.38 210.21-4.48L210.21-4.48L210.21-4.48Q211.07-3.58 212.35-3.46L212.35-3.46L212.35-3.46Q211.71-1.28 209.38 0L209.38 0L209.38 0Q207.04 1.28 204.42 1.28L204.42 1.28L204.42 1.28Q201.79 1.28 200.03 0.29L200.03 0.29L200.03 0.29Q198.27-0.70 197.76-2.37L197.76-2.37L197.76-2.37Q196.74-0.77 194.56 0.26L194.56 0.26L194.56 0.26Q192.38 1.28 189.47 1.28L189.47 1.28L189.47 1.28Q186.56 1.28 184.19 0.51L184.19 0.51L184.19 0.51Q181.82-0.26 180.32-1.92ZM193.82-27.90L193.82-27.90L193.82-27.90Q193.09-26.75 192.45-24.80L192.45-24.80L192.45-24.80Q191.81-22.85 190.75-17.63L190.75-17.63L190.75-17.63Q189.70-12.42 189.70-8.70L189.70-8.70L189.70-8.70Q189.70-4.99 190.27-3.90L190.27-3.90L190.27-3.90Q190.85-2.82 191.87-2.82L191.87-2.82L191.87-2.82Q193.92-2.82 195.42-4.77L195.42-4.77L195.42-4.77Q196.93-6.72 197.50-10.18L197.50-10.18L200.90-28.93L200.90-28.93Q199.55-30.08 197.98-30.08L197.98-30.08L197.98-30.08Q196.42-30.08 195.49-29.57L195.49-29.57L195.49-29.57Q194.56-29.06 193.82-27.90ZM237.76-17.98L237.76-17.98L237.76-17.98Q240.06-22.08 240.06-26.24L240.06-26.24L240.06-26.24Q240.06-28.99 238.08-28.99L238.08-28.99L238.08-28.99Q236.54-28.99 234.94-26.37L234.94-26.37L234.94-26.37Q233.28-23.74 232.77-20.35L232.77-20.35L229.44 0L216.19 1.28L222.72-32.64L233.28-33.92L232.13-27.46L232.13-27.46Q235.26-33.92 242.30-33.92L242.30-33.92L242.30-33.92Q246.02-33.92 248.03-32L248.03-32L248.03-32Q250.05-30.08 250.05-26.14L250.05-26.14L250.05-26.14Q250.05-22.21 247.46-19.71L247.46-19.71L247.46-19.71Q244.86-17.22 240.45-17.22L240.45-17.22L240.45-17.22Q238.53-17.22 237.76-17.98ZM276.99-10.82L276.99-10.82L276.99-10.82Q278.59-9.73 278.59-7.33L278.59-7.33L278.59-7.33Q278.59-4.93 277.38-3.39L277.38-3.39L277.38-3.39Q276.16-1.86 274.18-0.83L274.18-0.83L274.18-0.83Q270.08 1.28 265.66 1.28L265.66 1.28L265.66 1.28Q261.25 1.28 258.66 0.32L258.66 0.32L258.66 0.32Q256.06-0.64 254.34-2.43L254.34-2.43L254.34-2.43Q250.94-5.82 250.94-12.03L250.94-12.03L250.94-12.03Q250.94-21.70 256.19-27.58L256.19-27.58L256.19-27.58Q261.82-33.92 271.62-33.92L271.62-33.92L271.62-33.92Q277.70-33.92 280.70-31.36L280.70-31.36L280.70-31.36Q282.94-29.44 282.94-26.30L282.94-26.30L282.94-26.30Q282.94-15.04 263.49-15.04L263.49-15.04L263.49-15.04Q263.23-13.38 263.23-11.97L263.23-11.97L263.23-11.97Q263.23-9.02 264.54-7.90L264.54-7.90L264.54-7.90Q265.86-6.78 268.29-6.78L268.29-6.78L268.29-6.78Q270.72-6.78 273.31-7.90L273.31-7.90L273.31-7.90Q275.90-9.02 276.99-10.82ZM263.94-17.79L263.94-17.79L263.94-17.79Q268.48-17.79 271.10-20.61L271.10-20.61L271.10-20.61Q273.73-23.30 273.73-27.58L273.73-27.58L273.73-27.58Q273.73-29.06 273.18-29.86L273.18-29.86L273.18-29.86Q272.64-30.66 271.55-30.66L271.55-30.66L271.55-30.66Q270.46-30.66 269.54-30.24L269.54-30.24L269.54-30.24Q268.61-29.82 267.65-28.42L267.65-28.42L267.65-28.42Q265.28-25.22 263.94-17.79Z" fill="url(#editing-shiny-gradient2)"></path></g></g><style>text {
  font-size: 64px;
  font-family: Arial Black;
  dominant-baseline: central;
  text-anchor: middle;
}</style></svg>