<svg width="203.9825439453125px" height="122.021240234375px" xmlns="http://www.w3.org/2000/svg" viewBox="148.00872802734375 13.9893798828125 203.9825439453125 122.021240234375" style="background: rgba(0, 0, 0, 0);" preserveAspectRatio="xMidYMid"><defs><linearGradient id="editing-shiny-gradient" x1="0.04322727117869957" x2="0.9567727288213004" y1="0.2966316784620999" y2="0.7033683215379001" gradientUnits="objectBoundingBox"><stop offset="0.0" stop-color="#ffb200"></stop><stop offset="0.5" stop-color="#e10057"></stop><stop offset="1.0" stop-color="#5A1A80"></stop></linearGradient><linearGradient id="editing-shiny-gradient2" x1="0" x2="0" y1="0" y2="1"><stop offset="0.2" stop-color="#fff" stop-opacity="0.8"></stop><stop offset="0.8" stop-color="#fff" stop-opacity="0"></stop></linearGradient><filter id="editing-shiny2" x="-100%" y="-100%" width="300%" height="300%"><feMorphology operator="erode" radius="2"></feMorphology></filter><filter id="editing-shiny" x="-100%" y="-100%" width="300%" height="300%"><feFlood flood-color="#fff" result="flood"></feFlood><feConvolveMatrix in="SourceGraphic" result="conv" order="8,8" divisor="1" kernelMatrix="0 0 0 0 0 0 0 0 0 0 0 1 1 0 0 0 0 0 0 1 1 0 0 0 0 0 1 0 0 1 0 0 0 0 1 0 0 1 0 0 0 1 0 0 0 0 1 0 0 1 1 0 0 1 1 0 0 0 0 1 1 0 0 0 "></feConvolveMatrix><feOffset dx="0" dy="4" in="conv" result="offset"></feOffset><feComposite operator="in" in="flood" in2="offset" result="comp"></feComposite><feGaussianBlur in="offset" stdDeviation="3" result="shadow"></feGaussianBlur><feColorMatrix in="shadow" type="matrix" values="0.7 0 0 0 0  0 0.7 0 0 0  0 0 0.7 0 0  0 0 0 0.3 0" result="dark-shadow"></feColorMatrix><feOffset dx="0" dy="4" in="dark-shadow" result="offset-shadow"></feOffset><feOffset dx="0" dy="2" in="conv" result="offset-2"></feOffset><feComposite operator="out" in="offset" in2="offset-2" result="edge-diff"></feComposite><feGaussianBlur in="edge-diff" stdDeviation="1" result="edge-blur"></feGaussianBlur><feColorMatrix in="edge-blur" result="edge-shadow" type="matrix" values="0 0 0 0 0  0 0 0 0 0  0 0 0 0 0  0 0 0 0.5 0"></feColorMatrix><feComposite operator="in" in="edge-shadow" in2="offset" result="edge-shadow-in"></feComposite><feOffset dx="0" dy="1" in="edge-shadow-in" result="edge-shadow-final"></feOffset><feMerge result="out"><feMergeNode in="offset-shadow"></feMergeNode><feMergeNode in="comp"></feMergeNode><feMergeNode in="edge-shadow-final"></feMergeNode><feMergeNode in="SourceGraphic"></feMergeNode></feMerge></filter></defs><g filter="url(#editing-shiny)"><g transform="translate(182.7049990594387, 96.75218772888184)"><path d="M30.21-33.92L30.21-33.92L30.21-33.92Q25.02-33.92 21.25-35.65L21.25-35.65L19.20-25.28L31.55-25.28L31.55-25.28Q31.55-21.89 29.86-19.74L29.86-19.74L29.86-19.74Q28.16-17.60 25.09-17.60L25.09-17.60L25.09-17.60Q21.76-17.60 18.69-18.82L18.69-18.82L18.69-18.82Q18.05-19.07 17.98-19.14L17.98-19.14L14.34 0L0.38 0L8.51-42.24L37.06-42.24L37.06-42.24Q37.06-38.34 35.23-36.13L35.23-36.13L35.23-36.13Q33.41-33.92 30.21-33.92ZM54.98-17.98L54.98-17.98L54.98-17.98Q57.28-22.08 57.28-26.24L57.28-26.24L57.28-26.24Q57.28-28.99 55.30-28.99L55.30-28.99L55.30-28.99Q53.76-28.99 52.16-26.37L52.16-26.37L52.16-26.37Q50.50-23.74 49.98-20.35L49.98-20.35L46.66 0L33.41 1.28L39.94-32.64L50.50-33.92L49.34-27.46L49.34-27.46Q52.48-33.92 59.52-33.92L59.52-33.92L59.52-33.92Q63.23-33.92 65.25-32L65.25-32L65.25-32Q67.26-30.08 67.26-26.14L67.26-26.14L67.26-26.14Q67.26-22.21 64.67-19.71L64.67-19.71L64.67-19.71Q62.08-17.22 57.66-17.22L57.66-17.22L57.66-17.22Q55.74-17.22 54.98-17.98ZM94.21-10.82L94.21-10.82L94.21-10.82Q95.81-9.73 95.81-7.33L95.81-7.33L95.81-7.33Q95.81-4.93 94.59-3.39L94.59-3.39L94.59-3.39Q93.38-1.86 91.39-0.83L91.39-0.83L91.39-0.83Q87.30 1.28 82.88 1.28L82.88 1.28L82.88 1.28Q78.46 1.28 75.87 0.32L75.87 0.32L75.87 0.32Q73.28-0.64 71.55-2.43L71.55-2.43L71.55-2.43Q68.16-5.82 68.16-12.03L68.16-12.03L68.16-12.03Q68.16-21.70 73.41-27.58L73.41-27.58L73.41-27.58Q79.04-33.92 88.83-33.92L88.83-33.92L88.83-33.92Q94.91-33.92 97.92-31.36L97.92-31.36L97.92-31.36Q100.16-29.44 100.16-26.30L100.16-26.30L100.16-26.30Q100.16-15.04 80.70-15.04L80.70-15.04L80.70-15.04Q80.45-13.38 80.45-11.97L80.45-11.97L80.45-11.97Q80.45-9.02 81.76-7.90L81.76-7.90L81.76-7.90Q83.07-6.78 85.50-6.78L85.50-6.78L85.50-6.78Q87.94-6.78 90.53-7.90L90.53-7.90L90.53-7.90Q93.12-9.02 94.21-10.82ZM81.15-17.79L81.15-17.79L81.15-17.79Q85.70-17.79 88.32-20.61L88.32-20.61L88.32-20.61Q90.94-23.30 90.94-27.58L90.94-27.58L90.94-27.58Q90.94-29.06 90.40-29.86L90.40-29.86L90.40-29.86Q89.86-30.66 88.77-30.66L88.77-30.66L88.77-30.66Q87.68-30.66 86.75-30.24L86.75-30.24L86.75-30.24Q85.82-29.82 84.86-28.42L84.86-28.42L84.86-28.42Q82.50-25.22 81.15-17.79ZM128.26-10.82L128.26-10.82L128.26-10.82Q129.86-9.73 129.86-7.33L129.86-7.33L129.86-7.33Q129.86-4.93 128.64-3.39L128.64-3.39L128.64-3.39Q127.42-1.86 125.44-0.83L125.44-0.83L125.44-0.83Q121.34 1.28 116.93 1.28L116.93 1.28L116.93 1.28Q112.51 1.28 109.92 0.32L109.92 0.32L109.92 0.32Q107.33-0.64 105.60-2.43L105.60-2.43L105.60-2.43Q102.21-5.82 102.21-12.03L102.21-12.03L102.21-12.03Q102.21-21.70 107.46-27.58L107.46-27.58L107.46-27.58Q113.09-33.92 122.88-33.92L122.88-33.92L122.88-33.92Q128.96-33.92 131.97-31.36L131.97-31.36L131.97-31.36Q134.21-29.44 134.21-26.30L134.21-26.30L134.21-26.30Q134.21-15.04 114.75-15.04L114.75-15.04L114.75-15.04Q114.50-13.38 114.50-11.97L114.50-11.97L114.50-11.97Q114.50-9.02 115.81-7.90L115.81-7.90L115.81-7.90Q117.12-6.78 119.55-6.78L119.55-6.78L119.55-6.78Q121.98-6.78 124.58-7.90L124.58-7.90L124.58-7.90Q127.17-9.02 128.26-10.82ZM115.20-17.79L115.20-17.79L115.20-17.79Q119.74-17.79 122.37-20.61L122.37-20.61L122.37-20.61Q124.99-23.30 124.99-27.58L124.99-27.58L124.99-27.58Q124.99-29.06 124.45-29.86L124.45-29.86L124.45-29.86Q123.90-30.66 122.82-30.66L122.82-30.66L122.82-30.66Q121.73-30.66 120.80-30.24L120.80-30.24L120.80-30.24Q119.87-29.82 118.91-28.42L118.91-28.42L118.91-28.42Q116.54-25.22 115.20-17.79Z" fill="url(#editing-shiny-gradient)"></path></g></g><g filter="url(#editing-shiny2)"><g transform="translate(182.7049990594387, 96.76000022888184)"><path d="M30.21-33.92L30.21-33.92L30.21-33.92Q25.02-33.92 21.25-35.65L21.25-35.65L19.20-25.28L31.55-25.28L31.55-25.28Q31.55-21.89 29.86-19.74L29.86-19.74L29.86-19.74Q28.16-17.60 25.09-17.60L25.09-17.60L25.09-17.60Q21.76-17.60 18.69-18.82L18.69-18.82L18.69-18.82Q18.05-19.07 17.98-19.14L17.98-19.14L14.34 0L0.38 0L8.51-42.24L37.06-42.24L37.06-42.24Q37.06-38.34 35.23-36.13L35.23-36.13L35.23-36.13Q33.41-33.92 30.21-33.92ZM54.98-17.98L54.98-17.98L54.98-17.98Q57.28-22.08 57.28-26.24L57.28-26.24L57.28-26.24Q57.28-28.99 55.30-28.99L55.30-28.99L55.30-28.99Q53.76-28.99 52.16-26.37L52.16-26.37L52.16-26.37Q50.50-23.74 49.98-20.35L49.98-20.35L46.66 0L33.41 1.28L39.94-32.64L50.50-33.92L49.34-27.46L49.34-27.46Q52.48-33.92 59.52-33.92L59.52-33.92L59.52-33.92Q63.23-33.92 65.25-32L65.25-32L65.25-32Q67.26-30.08 67.26-26.14L67.26-26.14L67.26-26.14Q67.26-22.21 64.67-19.71L64.67-19.71L64.67-19.71Q62.08-17.22 57.66-17.22L57.66-17.22L57.66-17.22Q55.74-17.22 54.98-17.98ZM94.21-10.82L94.21-10.82L94.21-10.82Q95.81-9.73 95.81-7.33L95.81-7.33L95.81-7.33Q95.81-4.93 94.59-3.39L94.59-3.39L94.59-3.39Q93.38-1.86 91.39-0.83L91.39-0.83L91.39-0.83Q87.30 1.28 82.88 1.28L82.88 1.28L82.88 1.28Q78.46 1.28 75.87 0.32L75.87 0.32L75.87 0.32Q73.28-0.64 71.55-2.43L71.55-2.43L71.55-2.43Q68.16-5.82 68.16-12.03L68.16-12.03L68.16-12.03Q68.16-21.70 73.41-27.58L73.41-27.58L73.41-27.58Q79.04-33.92 88.83-33.92L88.83-33.92L88.83-33.92Q94.91-33.92 97.92-31.36L97.92-31.36L97.92-31.36Q100.16-29.44 100.16-26.30L100.16-26.30L100.16-26.30Q100.16-15.04 80.70-15.04L80.70-15.04L80.70-15.04Q80.45-13.38 80.45-11.97L80.45-11.97L80.45-11.97Q80.45-9.02 81.76-7.90L81.76-7.90L81.76-7.90Q83.07-6.78 85.50-6.78L85.50-6.78L85.50-6.78Q87.94-6.78 90.53-7.90L90.53-7.90L90.53-7.90Q93.12-9.02 94.21-10.82ZM81.15-17.79L81.15-17.79L81.15-17.79Q85.70-17.79 88.32-20.61L88.32-20.61L88.32-20.61Q90.94-23.30 90.94-27.58L90.94-27.58L90.94-27.58Q90.94-29.06 90.40-29.86L90.40-29.86L90.40-29.86Q89.86-30.66 88.77-30.66L88.77-30.66L88.77-30.66Q87.68-30.66 86.75-30.24L86.75-30.24L86.75-30.24Q85.82-29.82 84.86-28.42L84.86-28.42L84.86-28.42Q82.50-25.22 81.15-17.79ZM128.26-10.82L128.26-10.82L128.26-10.82Q129.86-9.73 129.86-7.33L129.86-7.33L129.86-7.33Q129.86-4.93 128.64-3.39L128.64-3.39L128.64-3.39Q127.42-1.86 125.44-0.83L125.44-0.83L125.44-0.83Q121.34 1.28 116.93 1.28L116.93 1.28L116.93 1.28Q112.51 1.28 109.92 0.32L109.92 0.32L109.92 0.32Q107.33-0.64 105.60-2.43L105.60-2.43L105.60-2.43Q102.21-5.82 102.21-12.03L102.21-12.03L102.21-12.03Q102.21-21.70 107.46-27.58L107.46-27.58L107.46-27.58Q113.09-33.92 122.88-33.92L122.88-33.92L122.88-33.92Q128.96-33.92 131.97-31.36L131.97-31.36L131.97-31.36Q134.21-29.44 134.21-26.30L134.21-26.30L134.21-26.30Q134.21-15.04 114.75-15.04L114.75-15.04L114.75-15.04Q114.50-13.38 114.50-11.97L114.50-11.97L114.50-11.97Q114.50-9.02 115.81-7.90L115.81-7.90L115.81-7.90Q117.12-6.78 119.55-6.78L119.55-6.78L119.55-6.78Q121.98-6.78 124.58-7.90L124.58-7.90L124.58-7.90Q127.17-9.02 128.26-10.82ZM115.20-17.79L115.20-17.79L115.20-17.79Q119.74-17.79 122.37-20.61L122.37-20.61L122.37-20.61Q124.99-23.30 124.99-27.58L124.99-27.58L124.99-27.58Q124.99-29.06 124.45-29.86L124.45-29.86L124.45-29.86Q123.90-30.66 122.82-30.66L122.82-30.66L122.82-30.66Q121.73-30.66 120.80-30.24L120.80-30.24L120.80-30.24Q119.87-29.82 118.91-28.42L118.91-28.42L118.91-28.42Q116.54-25.22 115.20-17.79Z" fill="url(#editing-shiny-gradient2)"></path></g></g><style>text {
  font-size: 64px;
  font-family: Arial Black;
  dominant-baseline: central;
  text-anchor: middle;
}</style></svg>